/* XPM */
static char *Q2FwdHVyZSslMjgyJTI5[] = {
/* columns rows colors chars-per-pixel */
"64 64 107 2 ",
"   c #4B4A51",
".  c #56555C",
"X  c #5F5D65",
"o  c #605F66",
"O  c #65646C",
"+  c #6D6D6D",
"@  c #686670",
"#  c #6C6B73",
"$  c #706F76",
"%  c #737375",
"&  c #74737B",
"*  c #78777D",
"=  c #7B7B7D",
"-  c #80817F",
";  c #787780",
":  c #7D7C83",
">  c #807F85",
",  c #817F89",
"<  c #838385",
"1  c #85848C",
"2  c #88878E",
"3  c #8C8C8C",
"4  c #878691",
"5  c #898791",
"6  c #8D8B93",
"7  c #908F94",
"8  c #949494",
"9  c #94939A",
"0  c #98979B",
"q  c #9B9B9C",
"w  c #9D9CA3",
"e  c #A09FA4",
"r  c #A09FA8",
"t  c #A4A4A4",
"y  c #A5A5A9",
"u  c #A8A7AB",
"i  c #ABAAAB",
"p  c #ACACAC",
"a  c gray68",
"s  c #AEAEAD",
"d  c #ADACAE",
"f  c #AFAFAF",
"g  c #AAA9B0",
"h  c #ADADB0",
"j  c #AFAFB0",
"k  c #AEADB3",
"l  c #AFAEB3",
"z  c #B0AFB2",
"x  c #B1B1B1",
"c  c #B2B2B2",
"v  c gray70",
"b  c #B1B1B4",
"n  c #B3B3B4",
"m  c #B2B2B6",
"M  c #B5B5B4",
"N  c #B6B7B6",
"B  c #B7B7B7",
"V  c #B7B7B8",
"C  c #B8B7B9",
"Z  c gray72",
"A  c #B8B8B9",
"S  c #B9B9B9",
"D  c #B9B9BB",
"F  c gray73",
"G  c #BBBBBB",
"H  c #BBBABC",
"J  c #BCBBBC",
"K  c #BCBCBC",
"L  c gray",
"P  c #C0C0BF",
"I  c #BFBFC1",
"U  c #C0C0C0",
"Y  c #C0C0C1",
"T  c #C1C1C1",
"R  c #C3C3C3",
"E  c gray77",
"W  c #C5C5C5",
"Q  c #C5C5C6",
"!  c #C6C6C6",
"~  c gray78",
"^  c #C8C8C8",
"/  c gray79",
"(  c #CACACA",
")  c #CCCCCB",
"_  c gray80",
"`  c #CDCDCC",
"'  c #CECECE",
"]  c gray81",
"[  c #D0D0D0",
"{  c gray82",
"}  c LightGray",
"|  c gray83",
" . c #D5D5D5",
".. c gray84",
"X. c #D7D7D7",
"o. c #D8D8D8",
"O. c gray85",
"+. c #DADADA",
"@. c gainsboro",
"#. c #DDDDDD",
"$. c gray87",
"%. c #DFDFDF",
"&. c gray88",
"*. c #E1E1E1",
"=. c #E2E2E2",
"-. c gray89",
";. c #E4E4E4",
/* pixels */
"y r 6 * t t t u t < 8 v v v v 8 8 Z B F F s 3 c B B Z N 8 q N c c s t < u v s s t - q p t u t < = t q q q - % q q 8 8 3 + = 8 - ",
"w y w 6 3 t t y i e 8 t a a v i 0 u K Z B B u q Z Z Z Z s q u M c M s t q s s s p t 3 t s u p e 3 8 t q q q - - q 8 8 q - = 3 8 ",
"h a w w t t a Z t u i i M P v v v s G R E B Z Z Z P ! Z F F N G R G c M N Z L P c c s s N P s u p t p p x t q 8 q t x q 8 8 8 8 ",
"P e e t w f ) p t i u i ) P f v M M ~ } Z G K Z P X.P K G G G ] ) F F M c T } n N N v c ) G s p i t K P t t q q t P t q 8 8 3 p ",
"w e t t t J a t t a i M L a a S N B ~ B N K L G / E Z F P L Y ( F F P G F ! F n c K n K K c s c i i G p t i t q x s q t t 8 q x ",
"u e 7 t u u t i 8 t i f a v i q n B B L N t Z K P K P u s L Y P P B t Z F L P Y e p N Z Z K t q s p x x i 3 t t t t t - 8 8 q q ",
"u u < < t t i a q - e i a v v 3 q N Z L P e 0 Z P P E F 8 s R P ! P e q L L Y Y c 3 s Y K F N 3 q n c x x 8 = t i t t q % 8 q 8 ",
"t t t < 8 u t t i 3 3 i f a f i 8 t Z Z F N q t P L P P s q F ! P ! L e u ! Y Y P p q N F K G s 3 p B x s i 8 3 s t t t - - q t ",
"g v t t q t i f i t t t f N N s c p B P Y F G s B Y / Y Y Y B E ) ( P ( N P ! ( L R L M P R L G B p Z Z K s s u t s c p t q 8 i ",
"! u y i t a L S t i p f P ( s M c F ! } L L K P ~ o./ Y R E ~ } ..P ! ! ( ) X.~ R R R ! { ) K P K K E { S B v s P P B s p t t v ",
"a u a i u S P t a f p f / v M F N N ( P F R R L / ) P / ) ~ / o.R ~ ) ) ( } ( P ( / R ( { K E E P K ) K G K G B P P s v s p s P ",
"a t t p p M i p q a s S M M i f F K P P L u P L ~ R ~ v E ~ / / ) P B ) ( ) ) ) v ( ( ( ~ ( c K P E P P B i G N P v F q p s s s ",
"n h 1 q i i p f 0 3 i v v Z M 3 u G L P ~ t q L R E / B q P ! / { ' e c ( ) { { p t ~ ( ( ] Y 0 n P P R R q q B F Z P t - t v s ",
"v h q - t s i i y < 8 v v M S i 3 c P P P G 0 t R ~ ~ ~ t t / ] ' { P 0 G } { { ( q s ' ( ( ( s 8 P E Y P M 3 t P N N N q - x c ",
"h V a t 8 s p f p p q t M M Z B s t G P R G Y c B R / ~ / x M ] ' { ( ~ c ( { } ( ( s G ] ] ( ! G p ~ Y R P K t M G P N N t q M ",
"! M a v p v L L f p v M L ~ Z Z F P R ] E P ! / ( } } R _ ] ] } +.( { } ..} +.{ ] } ' ] ..o.! ' ] ) ) } ! E P R P ) P F F N F G ",
"I h M M a L ) a M M M v ] P Z L Z G ] ] Z ! ! ! ] o.Y ` ] ] } $.) ) } } } +.o./ o.} } } $.R ] } ] ) X.] P ) ~ R ~ } B R P G Z ) ",
"v h v M v L v v a G M P P v v L P Y ! L P G / ! _ ! / Y ] } } ] ' ) _ o.} } ( } R +.} ..) } ~ } } ] ] ~ R P ) ~ / P R v Y K K P ",
"K M 8 y b M Z Z q t v Z Z L v 8 v P Y ! E t v R / ] } Y t E ]  .X.' t ~ o.} +.+.v v ] } X.o.P u / ] ] } ) e B ~ ~ / / p q Z K P ",
"Z K t < v M B J s < t G Z G L q 8 K Y ! / Z 7 v ) ] ` ` t e ` } o.o.K q ) o.+.+.} e v o.o.o.} t t ] { { } G 8 G / / / Y 8 q Y P ",
"B M v t q M M Z B u 8 s Z L L Z t t P Y E P Z t P ] ] _ / v v ] } } } K p } o.X...) s R o.+.} / u M } { ] ) B t E ) / E K e p P ",
"Y P v K M M L R M Z B a P / Z L P L P / / I / / E ] } R ` } ) } o.] } +.} ] #.o.) +.+.] +.+.) } } ~ {  ._ / ] / E ] ` P / ~ L R ",
"] M Z Z Z !  .Z Z Z Z Y { ! Z R P Y ] } P ~ / ) } +./ ] } }  .$.} _ +.o.+.$.%.) X.+.+.$.-.{ } +.o.} $.X./ } ] } } #.E _ / / E ] ",
"M Z L H Z / L M B R K Y E M P R Y P ) P P ~ _ / } / R ] }  .o. ./ } +.o.+.+.) } +.$.+.$.} ] } +.X.o.o./ ] } } ] } / ~ / ] / / ) ",
"Y V t Z P Y L Y t a Z P L R v y P Y R ! / t P ~ / ) } v R } } ] o.( v } +.o.+.$.n ) +.X.o.-.~ n X.} } o.] p / } ` ] } x x / E / ",
"L L q q M Z Y E M 3 i L P Y L 8 t L E ~ ` s 8 P ] ` } / 8 Z }  .+.#.s t } +.+.%./ q ! #.$.#.+.t p ..+.o.o.x t ) ..} } / 8 p / E ",
"Z Z v 8 t L L L L t 8 M L P P v 7 s ! E ~ ~ t e / ' ` ` v q /  .X.o.] t v +.#.+.#.G t { #.#.+.] t G +.o.} { t s } ] ] ' Z 0 K / ",
"K Y M L a M Y Y Z Y Z v P R P L K p L ~ ~ Y / K K / } / ] E n } +.} } o.Y _ %.+.] $.] E #.#.} o.o.R { o.} ) o.Y E } } / ] / B / ",
"] Z Z Z R ! } E L Y Y ~ ] ) G R P R /  .Y ! ~ ` } o./ / } }  .#.+.( +.+.$.%.-.] X.#.%.%.;.o.] $.#.#.%.%.( } X.X.} #.] ) ] ] ' } ",
"K M P P L ] ` Z ! R Y ! } G Y ! Y P ` R R / / / } ` Y }  .} } +.E } #.+.+.$.} ( %.%.$.#.$.) +.$.#.+.#.] } o.o...o.} ! } } ) ) } ",
"Z v a Y L ! L Y a P P ~ P ! M v R E ! R P v / ~ _ ~ } Z / } } ] } ) ( +.+.} } +.Y +.%.o.} %./ / #.+.} o.} B } X.} } } G ) ' ] / ",
"K L 8 t Z R ! / s q n Y E ~ Y 8 t P R ~ / q t R _ _ } Y 8 K ] } #.} e K o.+.%.%.K t } $.%.-.o.t Y o.+.$.#.N t _ } ..X.P q Y ] ] ",
"M G s 3 s P Y E P q q Y E ! E s 3 x R ~ E K 3 u / ] ] } p 8 / } } +.E 8 E #.+.#.+.t p +.$.%.-.~ q ( $.+.#...t s } ....} t e ( ' ",
"M B v v t G Y R P P u s R E Y P Z t P R ~ Y K t Z / ] / ] G p ] } } ] E u ' #.#.} ..B P +.%.+.+.' c ..+.+.' } F P } } ) ' N M ) ",
"Y L B G Y Y ~ ) G R ! R ~ ' K P R ~ ~ ) R P ~ ~ ~ } _ Y ] } ] } o.~ ] o.X.] #.] ] $.%.o.%.$.] +.%.+.+.*.{ } o.X.X.+.} ( | } ) { ",
"Y c G K G ~ } F R R R ~ o.E P E R P ] ] Z ~ R ~ ) } P ] ] ] } +._ ) +.o.X.#.+./ $.$.+.+.;.( +.$.%.+.*...) $.....o.#.~ o.| ' ' +.",
"c c G L L / L L G ~ R ) ! P P E R R / G P P E E ) Y ~ P ) ) ] / ~ ( ) X.....) } ] $.+.o.] o.] X.$.+.} ' ..' +.} o.' o.E ' { ' ' ",
"M c q c L Y R ! t p P E ~ ( c t K P E E R q x Y E / ) p t E / ] } ) e P ] } $.+.s N } o.+.$.( u ( o.+.$.+.p F { | o.o.P t ~ ' ' ",
"v v q 3 n P Y R F 8 p E / / R 0 q P R R ~ s 3 p ~ E / E 8 q / ] { } N 3 Y o.X.+.] 0 B o.o.+.+.x e ] +.+.+.( 0 L o.o.| | t t ' ' ",
"s s c q q F P L P n q N E P E K q p Y P Y P t 0 G Y R R Z q s / _ ] ( v t ) } o.] P t R X.+.X.] c c ..o.X.} P p ~ | | | ' s c { ",
"p M x N c n Y ~ G Y Y F R ~ Y E Y v P R R G E K n Y / G E ~ N ~ ] ~ ! ] ( ~ o.} E } ] E o.o./ } +.( ' X.} ) X.} ~ | o.~ | | ~ ' ",
"Y p s c Z Y } P L Y Y / } ] P ~ R R / } G R Y Y ~ } R P R R ) } ] P ] ] ] o.+.R } } } o.*.) ] X.X.o.$.#.( X.....+.$.' ' | ' | o.",
"u p s c c ~ E F Y ~ P ! ] K ~ / E P _ P P ~ E P / ~ Z Y ~ E ~ ) G ~ ) ] ( } R / ( o.} +.] ~ ] o.} } o./ ] } ..] } ' ( | | ' ' o.",
"u t q x c L G L p P L ! Y / c F R R ~ R K t K P R P ~ u p Y Y R ) P t R ( / ' } p G ] ] ] o.Y K } { { } ..s ( ] ' | | c P ] ) ' ",
"u y < 8 s N G Y t q N Y Y ~ K 8 s Y R R E e 8 N P Y R n 3 t P Y ~ ) q 0 P _ ' } P 3 c ' ] } ] q x ' } ..+.N q ! | | | R 0 F ' ' ",
"w w w > e c N G Z 8 t L P R Y p 8 B P P Y G 3 t K P K P t 3 v P R ! P 0 t ~ ( / ( c q P ] ' ' P 8 F ] ] { ) t t ) ' ' ) c q R ' ",
"7 w w t q u c N N Z t x L P Y K x u P P P G K t p G P G K n t L P R P E x Z ~ ) P ( R B / ) ~ ~ E x / ' ' ~ ' P P ] ' ~ ) E N ( ",
"x y w t g c L L c N K P ! ( F P K P E / R P P Y P ~ E B K P P ! ( G R P ~ ) } P R ~ ~ _ } ] Y ) ( ' { o.~ ] ) { ' o.{ ( ] ( ' | ",
"g 0 w w r b _ x Z Z Z Y } Y P P L Z ] ] Z R K Z P } M P L K G ] K L R P P ) / G ( ! R ~ } P / ) ( / ..~ ( ' ' ( { X.! { ( ( ( +.",
"9 0 w w w D h h p K M Y Y P n P L L ~ P Z n P G R G L a G G L P P c s P G Y Y Y s Y Y ~ E ) N n ! R / ( ! G ) ( ) ( ' F ( ( ' ( ",
"7 6 : 7 w y u l 8 q v Z L P h q n L Y Y P 0 u Z L R Y p 3 a Z P L F 3 e n P P Y t 8 n Y ! / P 8 p R ! / ( q s T ! ) { M q K ! ( ",
"4 6 & & 9 w r g w : w x b Z G 8 8 Z H L L a 3 a Z Z L Z 8 7 n n F Z t < t F F G B 3 8 L Y Y P s 3 n E ! ! B 3 N ( ! ( ! e e ~ ~ ",
": 4 5 ; 1 w w w t 9 6 u p h n h q t n n H Z i q v M M Z v q t x c N c u 0 s v F M N t t F G K K c t L Y Y L v e G ~ ~ E P s s E ",
"4 w 5 7 6 0 w g w r y y h Z n v v v Z L L M H Z M G Y v v M Z B L N v c G v P L c B G F P E F L G Y R ~ R P Y Y P ( ' R ( ! P ( ",
"y 1 4 5 6 w E t w w w y Y Y h v h b R ] B K n Z P } L B M v x / ~ v N s s L ] c G M v M ' P K K N N ( ' G R L L ~ o.P ( ~ T ! { ",
": < 4 4 5 h t 0 w w w u Y a p b h b ! G Z M V v Y Y M v Z v n Y v c c v p P N v p v v G L Z c Z N F ! F L N P K ~ R ! L ~ T ! ' ",
": ; & : 1 w 9 9 1 9 9 u g l w q y m D H v q a v K K K q t x M Z F p 7 t p n B N q q p x Z Z t 8 x v K Y Z q p Z P ~ ~ t s P T ( ",
"; ; X X : 4 6 9 : $ 6 0 w y u : 0 y l h n 9 3 u b n Z h < q b b B v 8 < t v x v u = 8 c c N c 3 3 s c Z Z t < s P P Y N 3 p Y E ",
"# # # X # : < 1 1 $ : 9 9 w w 9 < w y g y u 6 9 h b h l q 3 t x s p u 8 8 s p u p q 3 t s p p t 3 q c c c c t 0 N G G F p 8 N T ",
"@ ; # # ; 1 : 6 6 5 1 6 9 w u w w 0 y y b y a t u h V x h x u h v x p v u u s v p u u t s x p u s i s c K c N N c F P G L F c R ",
"6 * # # & 1 w 0 5 , 5 9 y b w w w w l I x g y g b Y L x h u Z I E v x p p n ~ n c p u s Y Y s s p s L ( n B c c K ' R P K G Y ' ",
"< # # # @ 6 u 4 4 4 1 8 V w w w w w Y m y g g y v E p x l u u / n x x h u K K p s p t h Y p c h i t P N c c c x L R F P P G K ' ",
"# O @ @ # 6 < 1 & , : w q w 6 9 9 w l y y 0 y y n h h q u y h Z n u q u u n v p 8 u u h c c q q u u N Z s 0 p p F L R t s G G E ",
"O O   . O ; & : # X ; 5 6 9 5 # 1 9 y w y : 2 w g g g q < w g h b s < 7 u h h x 6 < w u u s t * 8 y p p x 3 3 t c F P c < t Z Y "
};
