/* XPM */
static char *cGF0dGVybi1nNTZiMWYyZDE0XzY0MCslMjgxJTI5[] = {
/* columns rows colors chars-per-pixel */
"64 64 41 1 ",
"  c black",
". c #0D0A08",
"X c #5C493D",
"o c #695446",
"O c #685345",
"+ c #5C4A3D",
"@ c #0C0A08",
"# c #0C0908",
"$ c #5A4639",
"% c #675041",
"& c #665041",
"* c #5A4739",
"= c #0C0907",
"- c #0B0705",
"; c #4E3522",
": c #593C27",
"> c #583C27",
", c #0A0704",
"< c #4C321F",
"1 c #573923",
"2 c #563923",
"3 c #0A0604",
"4 c #4C331F",
"5 c #573A24",
"6 c #4D331F",
"7 c #090604",
"8 c #432C1B",
"9 c #080503",
"0 c #0A0807",
"q c #010101",
"w c #5D4A3E",
"e c #514136",
"r c #0B0807",
"t c #675141",
"y c #675142",
"u c #5B473A",
"i c #593D27",
"p c #0B0704",
"a c #0B0907",
"s c #010100",
"d c white",
/* pixels */
" .XoOOOOOOOOOOOOOOOOOOOOOOOOOOo+@#XoOOOOOOOOOOOOOOOOOOOOOOOOOOOO",
" @$%&&&&&&&&&&&&&&&&&&&&&&&&&&%*==*%&&&&&&&&&&&&&&&&&&&&&&&&&&&&",
" -;:>>>>>>>>>>>>>>>>>>>>>>>>>>:;,,;:>>>>>>>>>>>>>>>>>>>>>>>>>>>>",
" ,<1222222222222222222222222222<33<12222222222222222222222222222",
" ,<1222222222222222222222222221<,,<12222222222222222222222222222",
" ,<1222222222222222222222222221<,3<12222222222222222222222222222",
" ,<1222222222222222222222222221<,3<12222222222222222222222222222",
" ,<1222222222222222222222222221<,,<12222222222222222222222222222",
" ,<1222222222222222222222222221<,,<12222222222222222222222222222",
" ,<1222222222222222222222222221<,,<12222222222222222222222222222",
" ,<1222222222222222222222222221<,,<12222222222222222222222222222",
" ,<1222222222222222222222222221<,3<12222222222222222222222222222",
" ,451111111111111111111111111156,,451111111111111111111111111111",
" 786<<<<<<<<<<<<<<<<<<<<<<<<<<687786<<<<<<<<<<<<<<<<<<<<<<<<<<<<",
"  93333333333333,,33333333333339  93333333333333,,33333333333333",
"..@@@@@@@@@@@@@0qq0@@@@@@@@@@@@@..@@@@@@@@@@@@@0qq0@@@@@@@@@@@@@",
"XXX++++++++XX+we0rewX++++XX++XX++XX++++++++XX+we0rewX++++XX++XXX",
"t%%tttttttt%%tyu=#uy%tttt%%tt%%tt%%tttttttt%%tyu=#uy%tttt%%tt%%t",
">>>>>>>>>>>>>>i;,,;i>>>>>>>>>>>>>>>>>>>>>>>>>>i;,,;i>>>>>>>>>>>>",
"222222222222222<33<2222222222222222222222222222<33<2222222222222",
"222222222222221<,,<1222222222222222222222222221<,,<1222222222222",
"222222222222221<,,<1222222222222222222222222221<,,<1222222222222",
"222222222222221<,,<1222222222222222222222222221<,,<1222222222222",
"222222222222221<,,<1222222222222222222222222221<,,<1222222222222",
"222222222222221<,,<1222222222222222222222222221<,,<1222222222222",
"222222222222221<,,<1222222222222222222222222221<,,<1222222222222",
"222222222222221<,,<1222222222222222222222222221<,,<1222222222222",
"222222222222221<,,<1222222222222222222222222221<,,<1222222222222",
"1111111111111156,,651111111111111111111111111156,,65111111111111",
"<<<<<<<<<<<<<<687786<<<<<<<<<<<<<<<<<<<<<<<<<<687786<<<<<<<<<<<<",
"p,33333333333339  93333333333333,,33333333333339  93333333333333",
" qa@@@@@@@@@@@@@..@@@@@@@@@@@@@aqqa@@@@@@@@@@@@@..@@@@@@@@@@@@@@",
" aew+++++++XX++XX++XX++++XX++Xwer0ew+++++++XX++XX++XX++++XX++XX+",
" @uyttttttt%%tt%%tt%%tttt%%tt%yu#=uyttttttt%%tt%%tt%%tttt%%tt%%t",
" -;i>>>>>>>>>>>>>>>>>>>>>>>>>>i;,,;i>>>>>>>>>>>>>>>>>>>>>>>>>>>>",
" ,<1222222222222222222222222222<33<12222222222222222222222222222",
" ,<1222222222222222222222222221<,,<12222222222222222222222222222",
" ,<1222222222222222222222222221<,3<12222222222222222222222222222",
" ,<1222222222222222222222222221<,3<12222222222222222222222222222",
" ,<1222222222222222222222222221<,,<12222222222222222222222222222",
" ,<1222222222222222222222222221<,,<12222222222222222222222222222",
" ,<1222222222222222222222222221<,,<12222222222222222222222222222",
" ,<1222222222222222222222222221<,,<12222222222222222222222222222",
" ,<1222222222222222222222222221<,3<12222222222222222222222222222",
" ,451111111111111111111111111156,,451111111111111111111111111111",
" 786<<<<<<<<<<<<<<<<<<<<<<<<<<687786<<<<<<<<<<<<<<<<<<<<<<<<<<<<",
"  93333333333333,,33333333333339  93333333333333,,33333333333333",
"..@@@@@@@@@@@@@0qq0@@@@@@@@@@@@@..@@@@@@@@@@@@@0qq0@@@@@@@@@@@@@",
"XXX++++++++XX+we0rewX++++XX++XX++XX++++++++XX+we0rewX++++XX++XXX",
"t%%tttttttt%%tyu=#uy%tttt%%tt%%tt%%tttttttt%%tyu=#uy%tttt%%tt%%t",
">>>>>>>>>>>>>>i;,,;i>>>>>>>>>>>>>>>>>>>>>>>>>>i;,,;i>>>>>>>>>>>>",
"222222222222222<33<2222222222222222222222222222<33<2222222222222",
"222222222222221<,,<1222222222222222222222222221<,,<1222222222222",
"222222222222221<,,<1222222222222222222222222221<,,<1222222222222",
"222222222222221<,,<1222222222222222222222222221<,,<1222222222222",
"222222222222221<,,<1222222222222222222222222221<,,<1222222222222",
"222222222222221<,,<1222222222222222222222222221<,,<1222222222222",
"222222222222221<,,<1222222222222222222222222221<,,<1222222222222",
"222222222222221<,,<1222222222222222222222222221<,,<1222222222222",
"222222222222221<,,<1222222222222222222222222221<,,<1222222222222",
"1111111111111156,,651111111111111111111111111156,,65111111111111",
"<<<<<<<<<<<<<<687786<<<<<<<<<<<<<<<<<<<<<<<<<<687786<<<<<<<<<<<<",
",,,,,,,,,,,,,,p7ss7p,,,,,,,,,,,,,,,,,,,,,,,,,,p7ss7p,,,,,,,,,,,,",
"                                                                "
};
