/* XPM */
static char *dCVDMyVBOWwlQzMlQTljaGFyZ2VtZW50KyUyODElMjk_[] = {
/* columns rows colors chars-per-pixel */
"64 64 146 2 ",
"   c #121619",
".  c #161A1C",
"X  c #181C1F",
"o  c #1A1E21",
"O  c #1D2225",
"+  c #1F2528",
"@  c #1F282B",
"#  c #202527",
"$  c #212629",
"%  c #242A2D",
"&  c #262D31",
"*  c #282F32",
"=  c #273133",
"-  c #2B3235",
";  c #2E3539",
":  c #2F383B",
">  c #30373B",
",  c #323A3D",
"<  c #363C41",
"1  c #353D42",
"2  c #363D42",
"3  c #373D42",
"4  c #363E42",
"5  c #373E42",
"6  c #373F42",
"7  c #373E43",
"8  c #373F43",
"9  c #353C41",
"0  c #353D41",
"q  c #383E43",
"w  c #383F43",
"e  c #383F44",
"r  c #393F44",
"t  c #383F44",
"y  c #374043",
"u  c #374143",
"i  c #374044",
"p  c #374144",
"a  c #364144",
"s  c #384043",
"d  c #384044",
"f  c #394044",
"g  c #384144",
"h  c #394144",
"j  c #394045",
"k  c #384145",
"l  c #394145",
"z  c #3A4145",
"x  c #384244",
"c  c #384245",
"v  c #394245",
"b  c #384345",
"n  c #3A4245",
"m  c #394246",
"M  c #394346",
"N  c #3A4246",
"B  c #3B4246",
"V  c #3A4346",
"C  c #3A4247",
"Z  c #3B4347",
"A  c #394446",
"S  c #394547",
"D  c #3A4446",
"F  c #3A4447",
"G  c #3A4547",
"H  c #394346",
"J  c #3B4348",
"K  c #3A4448",
"L  c #3B4448",
"P  c #3A4548",
"I  c #3B4548",
"U  c #3A4648",
"Y  c #3B4648",
"T  c #3D4448",
"R  c #3D4449",
"E  c #3C454A",
"W  c #3D464A",
"Q  c #3E474A",
"!  c #3F464B",
"~  c #3F474B",
"^  c #3F474C",
"/  c #3C4649",
"(  c #3E484B",
")  c #3E484C",
"_  c #3E494C",
"`  c #3F484D",
"'  c #3F494D",
"]  c #3E4A4C",
"[  c #3C494B",
"{  c #40474D",
"}  c #404A4E",
"|  c #414A4E",
" . c #404B4E",
".. c #414B4E",
"X. c #414A4F",
"o. c #414B4F",
"O. c #424B4F",
"+. c #414A4E",
"@. c #424C50",
"#. c #434C50",
"$. c #434E52",
"%. c #444D52",
"&. c #444E52",
"*. c #454E52",
"=. c #444F53",
"-. c #444D52",
";. c #455054",
":. c #465155",
">. c #475255",
",. c #475256",
"<. c #465154",
"1. c #485156",
"2. c #485157",
"3. c #485256",
"4. c #495256",
"5. c #495257",
"6. c #4A5257",
"7. c #495256",
"8. c #485258",
"9. c #495258",
"0. c #495358",
"q. c #4A5358",
"w. c #495558",
"e. c #4B5459",
"r. c #4C565A",
"t. c #4C565B",
"y. c #4C575B",
"u. c #4D565C",
"i. c #4E565C",
"p. c #4C555A",
"a. c #4E585D",
"s. c #4F585E",
"d. c #4E5A5E",
"f. c #4F595D",
"g. c #505A5F",
"h. c #505A5F",
"j. c #515A60",
"k. c #515B60",
"l. c #525C61",
"z. c #535C62",
"x. c #535C62",
"c. c #566066",
"v. c #566166",
"b. c #5A6469",
"n. c #5E686E",
"m. c #606B71",
/* pixels */
"< < < N N ! < N s N s q < q < < < > < < , < 3 r $ & * - - - - = - = = = = = = - - - - 9 { q r 8 J J L L L S [ ; [ S S L S S p < ",
"< < < N T | N N N N N < q < s s 2 < , > > , r > # * - - = - - - - = = = = = - = - * & - %.q r 2 8 8 b S L S ` , N N p S L N N < ",
"< < < , ; | S S s N N q < s q s r < > < , > q - + ; - - - - = = = = = = = & = = * * $ * 2.< 9 < < < p b N S J > N N N S N p y y ",
"< < N > = ` L L S N N N N < q s 2 q r q > > r - O - & - = = = = = = = = & = & = * - $ * 2.2 9 > 1 1 1 p N 8 J * < < < N y N y < ",
"8 8 N ; % J S L L N r r s y < s r r 9 * < < N - + < @ = & % = = = = = % & & = & * * % & ` 1 ; : : 9 9 9 9 9 8 & 9 < < < y s q < ",
"8 < q > $ J S S L N q q q < < > > * * > < , R ; O S + % @ @ % @ @ & % = % = & - * ; * $ r m : 9 : : : 9 < > 2 $ & > < < < q y p ",
"N r @.! O ` %.N S y , > ; * % % & - ; ; < < 0., . ! , % = @ @ @ @ @ @ % % % & ; ; ; * O : ; & - ; 9 9 : > < E $ & 8 , , < < < r ",
"; ; ; r O , % $ O O o o o o o O O O O # % & ; ; X - % $ + O O + O @ % % % + + % % + o o + o O O O $ & + O $ $ o O * % $ % O & & ",
", ; , : > ; % = = ; , , , , > X & : : , , ; = - - ; , - - - - : , - X % - = = % $ % = % - = & - % $ $ $ % + O O o O o o O > > < ",
">.>.>.>.r.h.y.r.4.4.6.6.i.z.i.> 8.c.@.;.$.` ` [ | { | ..%.0.:.4.d.l.+ b n.l.w.>.>.w.r.h.d.d.d.l.k.k.d.$.[ 1 ; - * * * ; N z.4.%.",
"S [ S S S S S , > > > > > i.z.{ y.[ 1 a p U U U [ T [ [ ! ! T ! O.w.# < d.U [ U U U S S a a a , < r 1 8 1 , : = & & * ; L ` < b ",
"S [ [ [ [ b 9 9 , , , , , > *.{ ' S 1 a p L [ [ [ [ [ ] [ ` | %.%.4.= , ] S [ [ [ U [ [ a a a a 1 < 1 1 p p a a - & & & : b b U ",
"[ S U U S u 6 , , , , , q , *.{ E S c c a p [ L ! [ [ [ ! ` $.%.*.%.= z O.T U [ [ U [ b S b a a a 1 1 1 1 a a S u : : = = , S S ",
"S [ [ U s q , , , , , , , , #.r 1 1 1 m S a S L T [ [ [ [ ..<.$., - % N T S [ [ U S [ S S b a a y a 1 1 1 a a a b y N ; % , S S ",
"S U [ a , q , , , , , q , , | > 9 9 - ; m m a S [ [ { [ ` $.8.- % y = ; T s [ [ U S S b b b S a b p a a a a a a b [ y - % , N S ",
"U b a , , , > > , , , q , q , * = : - ; ; 1 1 < L ! ! ! ` :.N % , T = * [ T u [ S S b b S b S a a 1 a 1 a a a a a a s - % , < S ",
"b a u , , , , 6 ; * * * 9 9 % $ 9 r 9 9 9 9 9 9 m S S ' ` 8.& ; < ! ; % ! @.` E [ [ b p U L L L m e e m p p p 1 p b s , $ ! N q ",
"@ = ; : 6 S S : % $ $ + $ + $ o 9 q > * $ % o o @ @ & & 9 : % 1 y 8 o % - & ; ; - , : : y , : ; - : ; ; 9 a 1 1 ; & % # O & & $ ",
"% % = - # o X . o o o + o o $ $ ; - * $ $ o & % = & = - - & : : ; % + & * * % $ %   O + O O o X o O O o O O O . + % % # $ % % & ",
" .>.w.l.v.h.w.r.9.9 2.z.i.2.q { %.%.X.{ q > z.j.y.w.y.] $.$.=.u.l.l.k.z.b.z.z.8.l.> - ` p p J N e m m + : 1 : . , m.:.S { | | | ",
"- > 9 9 T { | O.u.r s.s.e 9 9 e 9 8 < 9 > ; 9.2.a a = a 9 9 9 m , ; , < 1 2 2 e :.< = y ; & & & & ; & = e 9 a = ] d.L b S y , > ",
"9 9 > 9 , , 9 > t 1 9 ; & & 1 1 1 m p 8 9 ; 2.R a : a a 1 1 c m ; ; ; : 9 : 9 1 ! , > ; & % & & = & - c : ; : - $.,.U [ S T s > ",
"- > > 9 9 9 9 9 e 9 + e ` ` 1 1 p m N < ; & { R a a 9 9 1 9 : = - ; ; ; ; : , 9 N < ; ; & & & = = @ 8 1 ; - : - L $.L L b ! < > ",
"> > ; 9 9 9 9 9 1 * 1 j.2.1 1 e m m J r - & ! R a 1 : 9 - @ = - - ; ; ; ; : , < < > ; ; & & & = = & 9 : ; ; ; - , S L S L ! , > ",
"> > 9 9 9 9 ; 9 < % > 2.E 1 1 e m c S 1 & & r 8 : : : - - - - - ; ; ; ; ; : , 1 , ; - - * % * - % ; : : : ; > * ; s L L [ < , > ",
"> 9 9 > 9 9 9 > 3 $ * { 1 1 1 e m c m 9 * $ > , : - - = & & - = : ; : : ; : 9 2 ; * % - % & = % = , - - - ; = & & , N S N < , , ",
"> > 9 > 9 9 < < { % $ { 1 9 e r K m E : & % ; , : = = = - - ; ; ; ; , , 9 9 9 1 ; $ % - * * % % : : = - : : % # % , N < 3 , < > ",
"> 9 9 > 9 < < q %.$ + %.` e e r ' $.%.= * $ > R ; 9 = 9 ; , , < < p N L ` E ! 8 - % $ , * - % & , - : , [ # # # % R N < , > > > ",
"& * % * * * * % 9 $ O { 9 + $ $ & & & $ - @ 2 * & * & % % & & & & & & % & & - 9 % O   O O o . # @ @ $ = $ X # X o # o O # # o $ ",
"- > ; % X X % % * $ * 9 & & & & & & & & * & * $ $ o o O & $ % & - - - ; - : * ; , , ; , , , , % O @ % % * - - - - - > # o & - * ",
"{ 2.6.j.> % { < 9 9 9 3 r r t r E ` E E E J 8 E 9 & z.b.z.d.g.d.d.i.u.u.u.0.0.i.h.h.v.h.h.h.r.v.*...l.w.6.2.*.9.i.i.i.q & 3 { #.",
"< < - { ! > ! * * * * * 9 & - - = = = : * & $ - ; * z.` ` S p a a 1 a 8 8 8 8 < , > , , , , 6 4.; *.r.u , , , , , q r r * > , > ",
", 6 , 6 u , , = : = : - - ; : - = ; : = % % % % & - w.S b p y < 1 1 8 8 8 2 9 9 6 9 6 , 6 , 6 ..- *.#., , , , , , r < < 3 9 9 > ",
", , , , , u , = = : - : - ; = - = = % = = % % $ $ = ` < a < < s < , ; : : > > > , , , : , , , ..- *..., , , , , 3 3 9 < < < 9 9 ",
", 6 , 6 : : , - : = : = - - = = = = = % % % % % % O % ; ; : > , 1 , : > > , 9 9 , , ; : , : : D - s { , , , q , , > < < 9 9 9 > ",
"6 , , 6 - * : - : : - - - = % = = = = % & % % % $ # - % % & % % 9 : , : 9 > 9 > , : ; : : , : , % - 6 , , , , r < 9 < > > 9 9 9 ",
"6 6 < 6 : # : - : : = = : = = = % % % = % % % % % O R #.T ! T % * , , > : : > : : ; : : : : - ; % % , , , , , , 9 9 > 9 9 9 9 < ",
"6 n q q : # = - = = : = = = = % * % % % & & % % % o < ! ! { | %.; = , , : ; ; ; : ; : : ; - ; - # % > > > > , , 9 9 > < 9 9 < < ",
"B { B { : X % = = : : = = = - = % = % % % % $ % * X ; < q s B B ..; % , , > , : > : : ; - - ; 1 # # , > , , , , 9 9 < < 3 q q q ",
"* - > , = o % = % = @ @ + + # # % # % % % $ $ & & . $ & & = ; ; - - X % ; - = & % % % $ + @ O - % # - - * * * * % $ * * * > > & ",
"% # # # # # # # @ @ + @ + O O   . O # % * * * O O O O % % % % % % % % # # . . . . X O O O O + % # O # O % % = % $ $ & & % & & * ",
"6.6.r.h.l.v.v.v.c.c.c.d.y.w.<.. O.b.v.l.h.h.4.{ | | | { O.{ < 4.4.r.h.h.x.D # s , ; - = - ; : 1 D ..# # b.d.d.w.2.2.8.8.e.e.e.2.",
"n h T T ........[ ] ] ] ] ] ,.% 6.b.{ s s 6 D { { { | %.<.- O.4.O.{ T D h.h.: D b = - = = & = % % D % - h.u a a q r r r S N r r ",
"h s 6 6 , u x u a a S U [ [ ;.6 <.O.- , D s b { | | | 2.; s h.B ! ..b [  .h.- a , = - - = & & & # & = : w., S b r R ` ` [ S N N ",
"a a u a x u , u a a u S U U *., 4...; > 6 b b [ | | | N - g.;.;.O.] S U S w., : , = - = = = & & $ + $ : ] u u b b S U S S S u u ",
"b a S a u u 6 6 9 9 a b U U  ., *.D - ; , 6 6 T ! | @.N ; x.] ]  .] [ b b ] , : - = = = = = & % $ # # = u : : a S S b a u u u S ",
"a a S u u , , 6 9 6 a a U U ..; ..{ - : , , , y S | ` L & u.] ] [ S S a b b = - = = = = = & % @ # # # & u - : - [ S b b S a u u ",
"a b u u 6 ; s , 9 6 a b U U { * z h : : , , 6 6 y L [ ! % y ] U [ [ S a u u # % = % % % % % % % $ # % $ : - = % - [ S S S S a S ",
"b a a u 6 b s , s y < S S S N % 9 e ; ; ; 9 9 1 1 1 e m & , ` U S [ p < , : + - * & @ & & @ % + $ @ % O ; - = & % % $ 9 [ S a a ",
"u u a a u b 6 s N N S N N s - $ 9 r e 9 9 9 e e 1 e 1 1 * r L p 1 1 9 > : p O : 9 & & @ @ % @ % $ = % O - ; - = % % + % u u a a ",
": : - : , , , 6 , < , < ! & $ $ * { 9 * & * ; * & & & ; * : ; * % % & & - < o 1 1 & & & & @ $ $ O + % O % & = = % % % + - , : - ",
"# O @ @ # o O o O . O + $ o X . $ o o o o o o o O o o o o o # o + + O O o O o O o o o o o O O O X O X . O O + + + + % % + % % % ",
"x , u x ..w.y.Y . S :...< , - % & & ; 9 9 e r r J J r %.{ % r i.y.l.w.%.[ U [ a : E E L ! ! S X #.w.*.[ T ..] ..........#. .[ [ ",
"b b x S [ >.b.x.; b.b.] ! ! ` [ e e e e r %.8.` @.$.%.i.z.; R n.4...T T S [ [ [ ' [ ] ] ....[ = h.<., [ ] [ [ [ Y u 6 , : , , 6 ",
"u b b U Y x >.w.> y.;.a S y < < 1 1 1 1 1 e 1 e 8 2 9 ; i.; { i.; < y y a [ [ [ S [ [ U s y q & y., > 6 [ [ u u u S , , , : , u ",
", b x S Y Y >.*.; y.;.[ [ S < , 9 9 9 9 9 1 9 9 2 2 1 9 9.> %.z.> < y S S S [ [ [ [ [ [ S N , $ 6., , , 6 b u u u u 6 , , : , , ",
"6 < 6 b S [ ] | - 4.;.U S a : , > ; < 9 * ; 9 9 1 q 2 < %.> { e.; < 8 e m E [ [ U U [ U b a ; % 1 9 9 - ; 9 9 1 6 , 1 9 9 9 : 9 ",
", , > y S [ ] S & | ] S a : , 9 < R r ; - ; ; 9 9 2 q < E > r E ; < 8 8 S S [ S [ L U U a 1 - % 1 - 9 9 - ; ; ; , , 9 9 : > , , ",
"< , , < S [ [ , % { [ 9 , , , , , > * - ; ; 9 ; 9 1 r < { > 9 2 - 2 9 2 m S S [ L L J 2 , , - O = - 9 = ; 9 ; 9 > , , : : : , < ",
"q , q s S S ` R # { { , a , , , $ $ * - - ; ; 9 1 1 N R { > ; 9 * < 9 2 m S m K J p < 9 , 9 * o & = = = = = ; : : ; ; : : > > 9 ",
", < N T T ! S ! O B | ; : : , @ % * * * - > 9 q 1 q r 1 1 ; % 9 9 1 e e m E [ K r 8 8 < 2 2 * O & e 9 ; ; ; - ; - ; : , , : ; > ",
"$ # O O # O X O . % % # @ @ @ X # % % % % % $ $ o o o o o o o o o o $ o @ @ @ & * & & $ o O O . o @ % o O O O $ @ $ & & $ $ $ # ",
", , , % . s N s s q s s s y , S 3 r r q 1 3 q > $ 9 - - & * * & * - * ; * & & ; * * # o 2 r r 8 E e e E R N r O & r J r r 9 9 > ",
"B B T s > b.%.{ | ! T S T b [ U { | X.{ { R E { ; r ; ; ; ; 9 ; * 9 ; ; ; ; ; ; : 9 : < z.2.%.{ ` ` %.%.#.=.=.& 0.k.@.` ` { ! r "
};
