/* XPM */
static char *Q2FwdHVyZSslMjgxJTI5[] = {
/* columns rows colors chars-per-pixel */
"64 64 218 2 ",
"   c #18361F",
".  c #193721",
"X  c #163F26",
"o  c #193C23",
"O  c #1B3E2E",
"+  c #1B3D32",
"@  c #213F32",
"#  c #164126",
"$  c #1B4425",
"%  c #17452A",
"&  c #1B452B",
"*  c #1D4C2B",
"=  c #1E512D",
"-  c #1B4534",
";  c #1C4B35",
":  c #1B443B",
">  c #1D4C3B",
",  c #1E5333",
"<  c #1F5A33",
"1  c #1E523C",
"2  c #1F5A3D",
"3  c #234626",
"4  c #244728",
"5  c #224D2C",
"6  c #21522E",
"7  c #2B522F",
"8  c #214F35",
"9  c #204C3D",
"0  c #215333",
"q  c #2F5637",
"w  c #235B33",
"e  c #285932",
"r  c #21553B",
"t  c #235B3D",
"y  c #295B3B",
"u  c #335537",
"i  c #246136",
"p  c #276536",
"a  c #25623C",
"s  c #29643A",
"d  c #266B3A",
"f  c #2A6D3C",
"g  c #306F3C",
"h  c #27713E",
"j  c #2C733E",
"k  c #2D793F",
"l  c #31723F",
"z  c #327D3E",
"x  c #1E4642",
"c  c #1E4E42",
"v  c #1E5244",
"b  c #1F5847",
"n  c #1E534A",
"m  c #224D42",
"M  c #284C40",
"N  c #215344",
"B  c #225D43",
"V  c #22544B",
"C  c #235B4D",
"Z  c #325C4A",
"A  c #235C53",
"S  c #245955",
"D  c #1E645A",
"F  c #246242",
"G  c #296641",
"H  c #276C44",
"J  c #2A6B43",
"K  c #2F6C4A",
"L  c #326E44",
"P  c #31654D",
"I  c #336D4A",
"U  c #396F4F",
"Y  c #277245",
"T  c #2D7442",
"R  c #2E7B42",
"E  c #2B744A",
"W  c #2D7B4A",
"Q  c #327444",
"!  c #397247",
"~  c #337B45",
"^  c #387D45",
"/  c #35744A",
"(  c #3A744C",
")  c #357C4A",
"_  c #397D4C",
"`  c #256255",
"'  c #286053",
"]  c #25635B",
"[  c #29645D",
"{  c #266A5D",
"}  c #29695B",
"|  c #376F51",
" . c #3A6E52",
".. c #2B7A52",
"X. c #377452",
"o. c #3B7454",
"O. c #367C53",
"+. c #3B7B54",
"@. c #3C7758",
"#. c #3D7C59",
"$. c #266661",
"%. c #296662",
"&. c #266B64",
"*. c #2A6B65",
"=. c #256D6A",
"-. c #2B6E6A",
";. c #306F6D",
":. c #257066",
">. c #297167",
",. c #25726B",
"<. c #2C726C",
"1. c #2B796E",
"2. c #3E7D60",
"3. c #30736E",
"4. c #31796F",
"5. c #2A6F70",
"6. c #2E7571",
"7. c #267B72",
"8. c #2E7A74",
"9. c #247C78",
"0. c #2D7C79",
"q. c #317671",
"w. c #317B75",
"e. c #327D79",
"r. c #466E4D",
"t. c #43724B",
"y. c #416F53",
"u. c #437354",
"i. c #427D54",
"p. c #407758",
"a. c #417D5B",
"s. c #2E8147",
"d. c #2F834C",
"f. c #2F8C4D",
"g. c #338245",
"h. c #3A8446",
"j. c #3C8947",
"k. c #34834B",
"l. c #3A834D",
"z. c #358B4C",
"x. c #3B8B4C",
"c. c #2E914F",
"v. c #35934D",
"b. c #3A934D",
"n. c #39984E",
"m. c #2D8451",
"M. c #2E8A54",
"N. c #2F8D59",
"B. c #368452",
"V. c #3B8453",
"C. c #358B53",
"Z. c #3B8B53",
"A. c #378759",
"S. c #3C855B",
"D. c #358B5A",
"F. c #3B8C5B",
"G. c #2D975C",
"H. c #359353",
"J. c #3B9354",
"K. c #349A56",
"L. c #3B9A56",
"P. c #34945A",
"I. c #3B945B",
"U. c #369C5A",
"Y. c #3C9B5B",
"T. c #36A15C",
"R. c #3BA25C",
"E. c #39AA5E",
"W. c #3C8663",
"Q. c #3C8B63",
"!. c #3E8668",
"~. c #3E8D6A",
"^. c #3C9363",
"/. c #3B9265",
"(. c #3D9D61",
"). c #2F8277",
"_. c #26807A",
"`. c #2D827C",
"'. c #32827C",
"]. c #328A7E",
"[. c #34A361",
"{. c #3CA362",
"}. c #37AD61",
"|. c #3BAA62",
" X c #3BB262",
".X c #3BB866",
"XX c #408747",
"oX c #41854B",
"OX c #418B4C",
"+X c #40914D",
"@X c #438454",
"#X c #428C53",
"$X c #498856",
"%X c #42845C",
"&X c #428D5C",
"*X c #419354",
"=X c #41945C",
"-X c #419B5D",
";X c #41A158",
":X c #438562",
">X c #458562",
",X c #438E62",
"<X c #408F6A",
"1X c #429463",
"2X c #429A64",
"3X c #449369",
"4X c #40A162",
"5X c #40BC69",
"6X c #2C8681",
"7X c #2B8882",
"8X c #338581",
"9X c #348C84",
"0X c #388883",
"qX c #308E89",
"wX c #359187",
"eX c #329594",
"rX c #329995",
"tX c #359D98",
/* pixels */
"9 C V V V V V V V V C ' N 0 w w w i s e p s i i p p F F b r r t r t t B F H 8 Z :X#.#.p.o. .U U / I Q Q Q Q g l l g T Q L Q T 8 ",
"; A -.e.0.5.0.5.;.;.*.[ N e H.H.z.l.j.l.Z.g.g.z.c.K.[.[.[.[.G.c.D.m.m.N.B.H 9 P 3X>X>X%Xa.#.o.+.O./ _ ) ~ ~ ~ Q ~ Q Q Q T ) W 8 ",
"+ V *.-.5.%.5.;.-.%.%.[ N ; I.=X&X=X&X$X#X#Xx.v.n.n.K.v.v.v.f.s.s.g.k.B.C.d 0 P ,X>X>X>Xa.a.o.@.+.+./ ) ~ ~ ~ ~ Q L K L Q ~ E 8 ",
"+ V *.S S ] %.%.%.] %.S > ; _ $X$X&X&X#X*X#Xl.x.v.b.v.v.j.g.z ~ g.~ Q ) B.p 8 P <X>X>X>Xa.a.#.S.+._ ^ ) ~ ~ Q Q Q Q Q Q Q ~ K ; ",
"+ S %.%.%.*.%.-.%.%.&.V > - ) $X$X$X=XY.I.H.C.Z.h.v.v.b.j.g.~ ~ ) / / / x.p 0 P ,X>X>X@Xa.#.i.+._ _ ^ ^ ) ~ E Q Q Q Q Q T l H ; ",
"+ S -.*.-.-.-.5.-.-.*.S > - ) F.&X&X=X-XI.C.Z.Z.z.x.v.v.z.g.) ) ~ ) ) ) k.s 8 K I.%XS.%X+.V._ _ g.) ~ ~ ^ Q Q Q ) Q ) / Q T s ; ",
"+ S 6.-.5.5.;.;.6.=.*.n > - W F.I.Y.Y.I.I.Z.Z.J.C.z.z.x.z.z.R T ) ) ) _ k.w * J I.S.&X=X_ _ _ ^ _ ^ ) ~ ~ ^ Q Q ~ ) ) ~ Q R G ; ",
"x ] 0.6.w.w.e.w.6.<.>.n > - ) I.I.L.-XY.Y.J.Z.J.Z.Z.Z.Z.j.k.C.W k.) k.) k.i 8 G Z.V.V.I.H./ ^ _ ^ ~ ) ) ) ) ~ Q ~ / / ) ) g...; ",
": ] e.q.e.e.'.w.8.<.,.n : - W L.Y.Y.2X=XY.I.J.Z.Z.Z.Z.Z.x.k.k.k.k.k.k.) j.p = a C.k._ _ l.) ) h.l.) l.k.B.) ) Q Q ~ ) Q ) s.E > ",
": ] e.w.e.e.8X'.8.1.1.n > - Y I.I.Y.-XY.=XI.I.Z.F.S.Z.x.k.k.k.x.B.B.) W z.p * i d.g.~ k._ _ _ l.j.l.l.k.k.W B.W ~ ~ ) Q Q ) J ; ",
"x ] 0.8.`.8X0X8X`.).6XD > - T F.I.I.=X-XJ.=XI.Z.Z.Z.Z.C.x.k.k.z.k.C.B.W k.< $ < R g.g.j.k.l.l.l.V.l.k.B.C.B.k.k.) ) ) Q ) ~ H 8 ",
"c n c V A V ` { { { 7.{ 1 - E F.^.I.=XI.1X-X=X=XD.A.Z.x.k.l.z.k.z.k.B.) z.w & w T R R M.Y.k.) B.B.B.J.I.P.C.P.H.H.B.) Q Q Q p - ",
"> ; - ; ; ; > , ; ; , 2 2 % W ^.^.^.^.^.1X,X1X&XZ.V.Z.C.h.z.v.z.k.k.B.) C.< * > : 1 > 1 1 > > > > 9 8 * * * * * * 5 * * * 5 5 ; ",
"B G J H f H T Y Y h d h i % ) 1X1X1X1X1X&X&X,X&X&XS.Z.Z.v.z.z.v.C.C.B.) K.2 , b ` ` ' ' A C C A A ] C * i i i i i s d d f f j p ",
"X.A.D.I.I.L.K.H.H.c.f.h < * B.(.2X1X3X=X&X,X,X=XF.F.S.L.n.v.v.C.V.V.+.O.T.a ; D 7X9X'.e.6.8._.6X6X&.v X d K.H.H.k.k.x.b.b.n.L.x.",
"/ O.) _ k.k.k.z.z.s.d.h = = B.3X3X2X1X1X=X&X,X=X1X(.L.L.K.H.H.C.C.k.O._ [.b ; A 1.>.-.-.*.*.*.*.&.] > X p C.O.k.Q ) ) k.k.x.x.) ",
"/ V.) O.) ) k.B.z.g.s.k , * ) 1X3X2X2X-XI.=X-X-X-XY.L.L.L.H.D.H.B.B.k.) G.2 - A <.<.<.$.$.*.*.%.%.S c # i f / / / E / ) ) k.k.^ ",
"_ O._ ) ) _ k.k.k.) k.j = * Q {.2X4X2X-XY.Y.R.4X-X-XL.Y.L.L.H.D.B.d.O.) f.1 - D 7.<.<.=.*.;.-.%.%.S c # f k.L Q / ) Q / ) _ ^ Q ",
"/ _ ) ) ) _ ) ~ k.^ k.T 6 5 l.4X{.2X4X4XR.L.R.R.R.R.-X=XZ.H.H.H.D.k.) W s.1 ; ] 0.6.6.6.<.3.-.%.$.S c % f l./ / / ) ) ) _ _ ) L ",
"! _ _ ) ~ ~ z.C.) ^ z.s.5 5 V.4X{.{.|.4XR.R.R.R.Y.R.R.Y.J.C.C.D.C.d.d.) d.2 : ] 8.6.8.8.q.3.q.-.*.A v # f l.~ ) ) _ _ ) l.l.) ! ",
"! _ _ _ ) ) g.l.) ) z.z.5 5 j.{.E.|.E.|.R.R.R.R.Y.R.R.R.J.l.C.H.H.z.s.k.z.1 > ] 0.e.0.w.q.q.3.-.<.A c % H z.Q ~ ) ) _ _ k.Z.Z.l.",
"L ( ! ) _ ) k.) ) ~ z.z.5 7 #X|.}.E.}.E.E.R.R.R.R.Y.Y.Y.L.Z.Z.b.H.z.B.B.D.r : ` e.q.8.q.q.q.-.-.<.] c % j k.Q ~ ! _ _ l.Z.#XZ.V.",
"( _ ( ) _ _ _ ) / Q C.H.6 7 *X.X}. XE.E.E.E.R.R.E.L.I.L.H.H.J.J.J.C.C.A.P.B > } w.3.1.3.1.6.6.,.8.] v * R Z.~ / / ^ _ @XZ.*XI.V.",
"i.@XV._ l.O._ _ ) H v.H.e e ;X5X.X}. X.X X;XE.E.;XR.Y.Y.I.I.I.Z.Z.C.B.B.B.t r } ).4.4.4.6.8.0.6XqX%.v * R Z./ ( ! ! ( V.&X#X#XV.",
"a.%XS.i.i._ _ ) ) Q H.H.= < a F B B F a a a a 2 i < < = 0 6 e e 6 6 6 6 = , r 1 : ; : : > > c n b C b = ) &X( t.t.! i.oX$X@X=Xl.",
"a.%Xa.#.@.( o._ / ) v.c.* > > x m m m c > > > > > - $ * & * * * 5 * 5 $ * = , , ; > 1 1 1 1 1 1 b b F , ~ $Xu.y.r.r.r.u.i.$X&XV.",
"@.a.#.o.o.o.( _ _ k.H.f.* v A S S %.%.$.{ { ` } { v < f T ) g.H d d d f d j d H Y E T E E ......W ..H = ~ a.y.y.u.u.u.p.a.@X%XV.",
"o.a.i.o.o.( ( _ _ g.v.z.& x 6.eXrXeXeX9X].].).8.{ v ; ) J.{.{.W ) g.g.g.k.z.z.z.L.H.U.L.P.|.|.^.v.f.p * T @X .y.u.u.p.u.a.%XF.+.",
"#.a.i.( ( ( _ ) k.g.v.k.& : 6.8X8X0.0.8.8.8.8.1.A v > / +.+.U o.o./ / ( +.i.( +.+.V.V.Z.V.B.k.z.z.z.i = R +. . .u.p.p.a.a.%X&XV.",
"+.+._ _ ^ ~ ^ k.l.l.Z.k.& : -.0.e.8.6.6.<.<.<.<.S c ; +.@.o.o. . . .( ( ( @.@.@.#.@.V.S.V.B.k.k.z.z.i * T +. . .o.o.@.#.#.S.Z.V.",
"_ O._ ^ ^ ^ x.x.Z.x.J.) & : =.e.w.w.5.-.,.,.>.<.A c > +.@.o.o.o.@. .X.+.O.#.+.@.#.@.#.V.S.+.B.k.z.j.i * j V./ ( o.#.i.V.V.Z.V._ ",
") _ _ _ ) ) z.C.z.z.z.T & x -.e.6.6.5.-.*.<.>.1.S > 1 O.o.(  . . . .@.Q.O.O.S.o.@.@.@.#.V.V.Z.z.g.z < * j l./ ( @.V.Z.@Xl.l.l.) ",
"~ _ ~ ) ^ _ l.x.z.k.k.T & : &.8.6.8.6.-.>.>.>.`.&.m > +.o.( / X.@.@.#.F./.B.#.O.X.o.#.#.S.V.#Xl.k.^ e = j V.) Q O.Z.#X@Xl.l.k.) ",
"Q g.^ ^ ) g.k.g.g.g.k.T & : &.6.6.6.-.-.,.*.*.6X,.> 1 O.o.X./ ) ) +.B._ B.^.S.O.O.@.S.V.S.Z.Z.V.l.^ w * T x./ ~ l.Z.Z.V.l.l.l._ ",
") g.h.) ) ~ ) ~ _ g.k.f & x &.>.=.6.-.=.*.*.$.7X,.> > B.X./ ) _ ) ) _ O.O.Z.D.A.V.@.V.V.V.S.Z.V.l.~ = = j k.Q ~ _ C.x.C.k.l.x.) ",
"~ ) g.z ~ ~ g.h.k.k.z.f & : &.<.5.-.&.&.&.%.&._.=.: 1 B._ / / ) ) ~ ^ V.V.V.V.O.O._ V.Z.#X#XV.l._ g.= * f ~ j l R k.k.l.i._ oX^ ",
"~ h.j.R f g.z.n.b.n.n.f $ 1 ] %.%.%.] ] D &.{ 7.D : < B.) ~ ) ) ~ ~ ) _ l.V.l._ l.l.l.@XoXl._ l.t.g.= * f C.C.Z.C.L.*X$XXXOX#XOX",
"$ $ * 0 * $ $ * 5 5 = = * ; > - - - - - - - - : 1 1 , v.~ ~ ~ ) ~ ^ ) ^ k.l.l.V._ g.h.^ _ ^ i._ ^ h.= ; 0 ; r r t y q u u q y e ",
"% , = = = * = 6 = = = 6 < w w w i w < 0 e e w < i , = v.g.~ Q ) ~ ^ h.^ h.g.l._ ^ ^ ^ h._ _ i._ g.l.= , 1 c m N m 9 9 M m m V > ",
"5 H R g.s.f.v.T.T.v.c.v.H.f.g.g.g.~ h.~ z z k k h = = v.) ) ~ ~ ) g.^ ^ ^ z ~ ~ ~ ^ l.k.g.l.k._ ^ x.r 1 A ` ] ] [ [ [ ] ] %.*.C ",
"- G Y.E.U.K.T.}.|.T.T.U.R.K.H.b.+X+X+X+Xj.j.g.z.f = < T.~ ~ ~ j ~ g.h.z z z z s.~ ~ k.k.k.k._ ) k.z.r 1 Z w.w.e.w.q.3.3.;.q.%.N ",
"- J K.K.H.C.C.C.C.C.C.C.v.z.l.OXOXj.OX+XXXj.g.f.f = < E.~ z z l g.h.j.z z s.z z g.~ ^ k.g.k.) ) k.v.2 > A e.e.e.w.w.q.;.*.*.S V ",
"- E K.H.H.M.C.M.C.D.C.C.z.x.l.x.x.j.j.XXj.f.f.v.d * < }.~ z Q Q ~ g.z z z z k s.R ~ ) ) g.g.) ~ g.z.1 : ` '.w.e.'.'.4.3.*.*.A V ",
"- Q H.C.C.C.z.D.D.I.I.C.Z.C.z.z.z.j.XXXXh.j.g.j.j * < {.Q l Q Q Q ~ g.s.s.R k z R z ~ ~ ~ ~ ~ Q l.H.t > ] 8X'.'.e.e.w.3.-.3.[ V ",
"- W P.F.D.D.D.D.Q.D.C.I.H.H.C.z.x.XXOX+Xj.XX+X+Xl $ 6 ) L L L / ! ) ) ) g.R k z k R ~ ~ ~ R T R k.H.2 1 1.eX0X].).e.e.q.-.<.*.V ",
"- O.I.P.D.Q.Q./.D.F.^.L.H.H.J.b.OXXXx.x.j.b.+X+Xf * * s L K U | X.Q ) O.) R s.z z k j R ~ j R R s.v.2 > 7.tXwXwX'.e.e.q.-.3.S m ",
"- B.P././.W././.D.P.^.L.H.I.J.#X+XOXOXOXj.j.b.n.f $ * g J U X.@.X.X.B.d.) W k.s.g.k k ~ j k R s.s.M.2 > 9.rXwX9X].w.q.<.-.0.&.m ",
"- O./.Q./.~.Q.A.W.F.H.L.I.H.Z.*X*XL.b.b.n.b.j.b.f $ * J J / O.O.@.#.#.O.W ) ) k.R ~ k k j R s.s.s.s.2 c 9.rX'.'.'.e.1.<.-.0.$.m ",
"> A.^.~.~.~.W.W.N.D.{.Y.I.*X#X*X*XL.K.v.v.b.x.J.j $ * j Q ) ) O.O.@.#.X.) ) k.k.R R ~ j j W z.d.s.R 1 v _.rX`.'.).0.8.<.<.'.{ > ",
"; D.^.~.~.!.W.W.D.Q.{.Y.I.#X#XJ.L.L.v.H.b.*XC.L.j * = j T k.B.S.O.#.S.B.B./ f h.z.j.v.v.f.c.U.C.R d , b ,._.1.1.>.<.4.<.3.4.A 9 ",
"; ^./.~.~.~.W.S.D.F.^.=X=X*XJ.H.L.H.v.H.J.*XZ.H.T * % X & - - - : - - - - 3 o $ $ $ $ $ $ 3 4 4 3 & = 2 > ; ; : ; > ; - - 9 r r ",
"* F.3X~.Q.W.A.A.D.D.S.=X=XL.v.L.H.K.H.J.#Xz.k.H.E r 1 m N N N v c v v v v V > w e w w < w w i w i i i 2 F F F F F F t t t t t r ",
"* C.Q.Q.Q.S.A.A.D.F.Z.D.J.H.H.H.H.H.H.#XC.k.B.I.Y , N { &.,.&.{ &.<.1.1.>.` 2 a C.K.P.K.K.Y.U.K.H.H.H.D.M.m.m.m.N.N.M.m.m.m.E 0 ",
"* C.,XW.S.W.Q.S.S.S.C.D.C.H.H.H.v.J.*Xx.x.V.k.D.Y ; > 8.0.`.'.q.7.6XqXqX`.A 1 s H.Y.U.^.(.{.{.Y.K.K.H.H.H.H.C.k.z.z.k.g.g.z.R 0 ",
"& V.Q.W.W.W.D.F.S.Z.C.B.C.D.H.v.b.#XoXC.B.V.+.V.H , c <.*.-.<.>.>.>.:.>.<.n > H V._ O.V.B.B.C.x.k.k.k.d.k.k.k.R T R z Q Q ) T 8 ",
"5 B.Q.Q.Q.!.!.F.I.F.D.B.C.H.f.z.Z.#Xl.k.V.S.a.V.J 9 c 1.-.-.<.<.4.<.*.<.1.V > s _ ) V.V.Z.V.z.x.C.k.z.k.g.R R ~ ~ Q l Q ) ) T 5 ",
"5 V.S.!.!.:XQ.Q.I.D.C.F.I.{.H.J.#X#XV.B.+.#.#.D.H > V w.3.-.-.<.3.<.;.>.3.V > y _ _ O.V.V.k.C.V.B.B.B.k.g.~ l z Q T Q Q Q k.T 6 ",
"* Z.S.2.!.!.!.F.F.D.D.C.Z.I.J.J.x.l.V.i.+.#.+.D.H ; V w.3.3.<.1.<.>.-.<.>.N > F k._ k.B.l.C.Z.Z.k.B.V.B.) ~ ~ Q Q Q Q T Q ) Q 5 ",
"5 Z.#.#.2.!.W.D.D.C.D.Z.Z.#XZ.OXXXV._ i.+.+.O.C.H > V w.<.3.3.6.>.*.-.-.-.V > G V.l.k.k.l.Z.Z.V.k.k.k._ ) ) ! Q T J Q Q Q k.j 5 ",
"& k.#.@.#.#.S.S.F.F.Z.S.Z.V.Z.XXoXoXi.@XO._ ) Z.H ; n w.-.3.<.3.-.*.*.*.-.V > G x.^ _ _ l.V.l.j._ _ _ ) ) Q ~ Q Q T ! ~ Q ) f * ",
"- k.+.@.#.#.#.#.S.Z.V.V.V.B.V.l.XXoXoXZ.B._ ) Z.H ; n 6.;.;.3.-.%.%.%.%.*.V > G l.) _ _ _ oX@X_ _ _ _ Q ) Q Q Q Q Q Q Q Q ^ f 5 ",
"5 k.S.V.#.S.S.S.%XV.V.j.x.x.#Xx.#XOXV.Z.V.B.k.B.G > n 6.;.3.;.3.;.5.;.*.%.c > J l./ ) _ _ l._ _ _ _ _ O._ Q Q l Q Q ~ ) ~ g.f 5 ",
"8 a K K / X.@.+.) ) _ Q l j ~ l Q L Q Q T J f f r > N ` [ [ [ *.;.%.[ A C m > s +.( ( +._ +._ _ +.) _ _ _ ) ! Q Q ~ ~ ^ ) g.f & ",
"o + O O O O + + + @ @ @ o         . . . o o     $ & 8 O O O O O + + O - - r * t ( U o.t.U ! ! ! ! ( / E L Q l g l l Q ! Q ) y & "
};
